<svg width="167" height="124" viewBox="0 0 167 124" fill="none" xmlns="http://www.w3.org/2000/svg">
<g clip-path="url(#clip0_11_1010)">
<path d="M0 6.92603V5.00696C0 2.24063 2.2519 0 5.03216 0H46.6078C49.388 0 51.6399 2.24063 51.6399 5.00696V6.92603H0ZM0 82.1427V86.8026C0 89.5689 2.2519 91.8095 5.03216 91.8095H46.6078C49.388 91.8095 51.6399 89.5689 51.6399 86.8026V82.1427H0Z" fill="#00BED5"/>
<path d="M51.6399 6.92969H0V82.1463H51.6399V6.92969Z" fill="white"/>
<path d="M15.8333 19.507H13.5096C13.1967 19.507 12.9453 19.2569 12.9453 18.9456V16.2099C12.9453 15.8985 13.1967 15.6484 13.5096 15.6484H15.9154C17.049 15.6484 17.9518 16.6131 17.8441 17.7615C17.7466 18.7618 16.8438 19.4968 15.8333 19.4968V19.507Z" fill="#F5B700"/>
<path d="M35.7265 19.5097C34.5929 19.5097 33.6901 18.5451 33.7978 17.3916C33.8953 16.3912 34.7981 15.6562 35.8086 15.6562H38.1323C38.4452 15.6562 38.6966 15.9063 38.6966 16.2177V18.9534C38.6966 19.2647 38.4452 19.5148 38.1323 19.5148H35.7265V19.5097Z" fill="#F5B700"/>
<path d="M82.682 65.86C71.1198 65.86 61.7532 75.1849 61.7532 86.6841V102.869C61.7532 112.321 53.9767 120.222 44.4766 120.059C35.2484 119.9 27.7951 112.382 27.7951 103.17V60.5622C27.7951 60.3886 27.9233 60.2457 28.0977 60.2253C36.9719 59.128 43.9021 51.712 44.1791 42.6576C44.1893 42.3462 43.9277 42.0859 43.6148 42.0859H40.8653C40.5576 42.0859 40.3165 42.3309 40.3062 42.6321C40.0138 50.3339 33.6274 56.5096 25.8202 56.5096C18.0129 56.5096 11.6214 50.3339 11.3341 42.6321C11.3238 42.3258 11.0776 42.0859 10.775 42.0859H8.02549C7.71258 42.0859 7.45097 42.3411 7.46123 42.6576C7.74336 51.712 14.6735 59.128 23.5426 60.2253C23.717 60.2457 23.8452 60.3886 23.8452 60.5622V102.853C23.8452 114.281 32.9657 123.82 44.4509 123.994C56.1414 124.172 65.7081 114.761 65.7081 103.17V86.6841C65.7081 77.3541 73.3102 69.7901 82.6871 69.7901H146.248V65.86H82.6871H82.682Z" fill="#F5B700"/>
<path d="M166.329 71.1759C168.188 66.6547 166.012 61.49 161.468 59.6402C156.924 57.7905 151.733 59.9563 149.874 64.4776C148.015 68.9988 150.191 74.1635 154.736 76.0133C159.28 77.863 164.47 75.6972 166.329 71.1759Z" fill="#002677"/>
<path d="M158.461 65.8594H146.242V69.7894H158.461V65.8594Z" fill="white"/>
<path d="M160.785 70.7509C162.404 69.2717 162.512 66.7663 161.025 65.1549C159.539 63.5434 157.021 63.4362 155.401 64.9154C153.782 66.3946 153.674 68.9001 155.161 70.5115C156.647 72.1229 159.165 72.2301 160.785 70.7509Z" fill="white"/>
<path d="M38.7491 16.2188H38.6875V18.9442H38.7491C39.9237 18.9442 40.8778 19.8936 40.8778 21.0624V42.0906H43.6171V21.0624C43.6171 18.393 41.4318 16.2188 38.7491 16.2188Z" fill="#00BED5"/>
<path d="M12.8836 16.2188C10.2008 16.2188 8.01562 18.393 8.01562 21.0624V42.0906H10.7548V21.0624C10.7548 19.8936 11.709 18.9442 12.8836 18.9442H12.9452V16.2188H12.8836Z" fill="#00BED5"/>
</g>
<defs>
<clipPath id="clip0_11_1010">
<rect width="167" height="124" fill="white"/>
</clipPath>
</defs>
</svg>
