<svg width="24" height="24" viewBox="0 0 24 24" fill="none" xmlns="http://www.w3.org/2000/svg">
<path d="M11.4051 14.5915L7.64265 10.829C7.58468 10.771 7.54121 10.7088 7.51222 10.6425C7.48324 10.5762 7.46875 10.5058 7.46875 10.4311C7.46875 10.2818 7.52156 10.1492 7.62717 10.0333C7.73279 9.91734 7.87056 9.85938 8.04047 9.85938H15.9633C16.1332 9.85938 16.271 9.91734 16.3766 10.0333C16.4822 10.1492 16.535 10.2818 16.535 10.4311C16.535 10.4724 16.4771 10.605 16.3611 10.829L12.5986 14.5915C12.5073 14.6828 12.413 14.7471 12.3157 14.7844C12.2185 14.8217 12.1138 14.8404 12.0019 14.8404C11.8899 14.8404 11.7853 14.8217 11.6881 14.7844C11.5908 14.7471 11.4965 14.6828 11.4051 14.5915Z" fill="white"/>
</svg>
