<svg width="24" height="24" viewBox="0 0 24 24" fill="none" xmlns="http://www.w3.org/2000/svg">
<path d="M8.15169 13.1414L12.8185 17.8082C13.0464 18.0361 13.1572 18.3033 13.1509 18.6099C13.1445 18.9164 13.0274 19.1836 12.7995 19.4115C12.5716 19.6227 12.3044 19.7315 11.9979 19.7379C11.6914 19.7442 11.4242 19.6334 11.1963 19.4055L4.59626 12.8055C4.4843 12.6936 4.4025 12.5693 4.35086 12.4327C4.29925 12.2961 4.27344 12.1532 4.27344 12.0039C4.27344 11.8546 4.29925 11.7117 4.35086 11.5751C4.4025 11.4385 4.4843 11.3142 4.59626 11.2023L11.2022 4.59629C11.4175 4.38105 11.6805 4.27344 11.9914 4.27344C12.3022 4.27344 12.5716 4.38105 12.7995 4.59629C13.0274 4.82419 13.1414 5.09456 13.1414 5.40741C13.1414 5.72028 13.0274 5.99066 12.7995 6.21856L8.15169 10.8664H19.0636C19.3829 10.8664 19.6522 10.9762 19.8718 11.1957C20.0914 11.4153 20.2012 11.6847 20.2012 12.0039C20.2012 12.3231 20.0914 12.5925 19.8718 12.812C19.6522 13.0316 19.3829 13.1414 19.0636 13.1414H8.15169Z" fill="#6F6F6F"/>
</svg>
