<svg width="60" height="60" viewBox="0 0 60 60" fill="none" xmlns="http://www.w3.org/2000/svg">
<circle cx="30" cy="30" r="29.5" fill="white" stroke="#DADBDC"/>
<g opacity="0.5">
<path d="M29.9909 43.4433C29.5882 43.4433 29.2521 43.3069 28.9828 43.0341C28.7135 42.7613 28.5788 42.4246 28.5788 42.0239V21.965L19.549 31.0049C19.2668 31.2881 18.9356 31.4297 18.5552 31.4297C18.1748 31.4297 17.843 31.2881 17.5598 31.0049C17.2699 30.7217 17.125 30.3874 17.125 30.0021C17.125 29.6169 17.2699 29.2814 17.5598 28.9958L29.0036 17.552C29.1476 17.3969 29.308 17.2857 29.4848 17.2183C29.6616 17.1509 29.839 17.1172 30.017 17.1172C30.1883 17.1172 30.3557 17.15 30.5193 17.2155C30.6828 17.281 30.8406 17.3932 30.9928 17.552L42.4466 28.9958C42.7298 29.2814 42.8714 29.6169 42.8714 30.0021C42.8714 30.3874 42.732 30.7217 42.4532 31.0049C42.1677 31.2881 41.834 31.4297 41.452 31.4297C41.07 31.4297 40.7385 31.2881 40.4575 31.0049L31.4176 21.965V42.0239C31.4176 42.4246 31.2805 42.7613 31.0063 43.0341C30.7321 43.3069 30.3936 43.4433 29.9909 43.4433Z" fill="#5A5A5A"/>
</g>
</svg>
