<svg width="20" height="20" viewBox="0 0 20 20" fill="none" xmlns="http://www.w3.org/2000/svg">
<path d="M7.31189 14.598C7.18418 14.4425 7.11686 14.2698 7.10991 14.0799C7.10297 13.89 7.17029 13.7242 7.31189 13.5826L10.9188 9.97576L7.29106 6.34805C7.16335 6.22033 7.10297 6.05109 7.10991 5.84034C7.11686 5.62959 7.18418 5.46036 7.31189 5.33263C7.46739 5.17715 7.63663 5.10288 7.8196 5.10982C8.00257 5.11676 8.16486 5.19104 8.30647 5.33263L12.4523 9.47847C12.5284 9.55456 12.5828 9.63315 12.6156 9.71422C12.6483 9.79529 12.6647 9.88247 12.6647 9.97576C12.6647 10.069 12.6483 10.1562 12.6156 10.2373C12.5828 10.3184 12.5284 10.397 12.4523 10.473L8.32731 14.598C8.1857 14.7396 8.01993 14.807 7.83002 14.8C7.6401 14.7931 7.46739 14.7258 7.31189 14.598Z" fill="#5A5A5A"/>
</svg>
