<svg width="56" height="56" viewBox="0 0 56 56" fill="none" xmlns="http://www.w3.org/2000/svg">
<circle cx="28" cy="28" r="27" fill="white" stroke="#002677" stroke-width="2"/>
<path d="M26.3188 27.9974L32.6594 34.338C33.0115 34.69 33.1875 35.1321 33.1875 35.6641C33.1875 36.1961 33.0115 36.6381 32.6594 36.9901C32.3074 37.3422 31.8653 37.5182 31.3333 37.5182C30.8013 37.5182 30.3593 37.3422 30.0073 36.9901L22.3505 29.3334C22.164 29.1469 22.0276 28.9397 21.9416 28.7121C21.8555 28.4844 21.8125 28.2462 21.8125 27.9974C21.8125 27.7486 21.8555 27.5104 21.9416 27.2827C22.0276 27.0551 22.164 26.8479 22.3505 26.6614L30.0073 19.0046C30.3593 18.6526 30.8013 18.4766 31.3333 18.4766C31.8653 18.4766 32.3074 18.6526 32.6594 19.0046C33.0115 19.3567 33.1875 19.7987 33.1875 20.3307C33.1875 20.8627 33.0115 21.3048 32.6594 21.6568L26.3188 27.9974Z" fill="#002677"/>
</svg>
