<svg width="24" height="24" viewBox="0 0 24 24" fill="none" xmlns="http://www.w3.org/2000/svg">
<path d="M11.9322 18.0002C12.2982 18.0002 12.6089 17.8723 12.8645 17.6167C13.1202 17.3611 13.248 17.05 13.248 16.6835C13.248 16.317 13.1202 16.0073 12.8645 15.7542C12.6089 15.5011 12.2982 15.3746 11.9322 15.3746C11.5663 15.3746 11.2555 15.5011 10.9999 15.7542C10.7443 16.0073 10.6165 16.317 10.6165 16.6835C10.6165 17.05 10.7443 17.3611 10.9999 17.6167C11.2555 17.8723 11.5663 18.0002 11.9322 18.0002ZM12.0001 22.2034C10.5849 22.2034 9.25706 21.9358 8.01652 21.4005C6.77599 20.8652 5.6969 20.1387 4.77925 19.2211C3.8616 18.3034 3.13512 17.2243 2.59982 15.9838C2.06452 14.7432 1.79688 13.4154 1.79688 12.0001C1.79688 10.5849 2.06452 9.25706 2.59982 8.01653C3.13512 6.77599 3.8616 5.6969 4.77925 4.77925C5.6969 3.8616 6.77599 3.13512 8.01652 2.59982C9.25706 2.06452 10.5849 1.79688 12.0001 1.79688C13.4154 1.79688 14.7432 2.06452 15.9838 2.59982C17.2243 3.13512 18.3034 3.8616 19.2211 4.77925C20.1387 5.6969 20.8652 6.77599 21.4005 8.01653C21.9358 9.25706 22.2034 10.5849 22.2034 12.0001C22.2034 13.4154 21.9358 14.7432 21.4005 15.9838C20.8652 17.2243 20.1387 18.3034 19.2211 19.2211C18.3034 20.1387 17.2243 20.8652 15.9838 21.4005C14.7432 21.9358 13.4154 22.2034 12.0001 22.2034ZM12.0822 7.8257C12.4667 7.8257 12.8013 7.94992 13.0858 8.19838C13.3704 8.44681 13.5126 8.75737 13.5126 9.13005C13.5126 9.47678 13.4071 9.78584 13.1961 10.0572C12.985 10.3286 12.7458 10.5813 12.4784 10.8154C12.0951 11.1487 11.7566 11.5174 11.4629 11.9213C11.1693 12.3253 11.0224 12.7773 11.0224 13.2773C11.0224 13.5242 11.1154 13.7314 11.3012 13.8989C11.4871 14.0664 11.704 14.1501 11.9518 14.1501C12.2174 14.1501 12.4436 14.0618 12.6306 13.8852C12.8175 13.7086 12.944 13.4893 13.0099 13.2273C13.0846 12.8933 13.2316 12.5957 13.451 12.3347C13.6704 12.0736 13.9074 11.8241 14.1621 11.586C14.5454 11.2233 14.8706 10.8223 15.1376 10.383C15.4047 9.94372 15.5382 9.4594 15.5382 8.93005C15.5382 8.07207 15.1953 7.36727 14.5097 6.81565C13.824 6.26402 13.0248 5.9882 12.1121 5.9882C11.4628 5.9882 10.8477 6.12552 10.2667 6.40015C9.68574 6.67478 9.23728 7.09109 8.92135 7.64907C8.79672 7.86102 8.7571 8.08741 8.8025 8.32822C8.8479 8.56906 8.97048 8.75191 9.17025 8.87677C9.41555 9.02207 9.67217 9.06673 9.9401 9.01075C10.208 8.95477 10.4333 8.80612 10.6159 8.56482C10.7913 8.33077 11.0087 8.14908 11.2682 8.01973C11.5278 7.89038 11.7991 7.8257 12.0822 7.8257Z" fill="white"/>
</svg>
