<svg width="24" height="24" viewBox="0 0 24 24" fill="none" xmlns="http://www.w3.org/2000/svg">
<path d="M4.9344 19.2034C4.61518 19.2034 4.34579 19.0936 4.12622 18.8741C3.90666 18.6545 3.79688 18.3851 3.79688 18.0659C3.79688 17.7467 3.90666 17.4773 4.12622 17.2577C4.34579 17.0382 4.61518 16.9284 4.9344 16.9284H5.72515V10.1317C5.72515 8.69652 6.15278 7.41654 7.00802 6.29173C7.86328 5.16691 8.98148 4.43185 10.3626 4.08655V3.4344C10.3626 2.97787 10.5214 2.59082 10.839 2.27325C11.1566 1.95567 11.5436 1.79688 12.0001 1.79688C12.4567 1.79688 12.8437 1.95567 13.1613 2.27325C13.4789 2.59082 13.6376 2.97787 13.6376 3.4344V4.08655C15.0228 4.43185 16.142 5.16591 16.9953 6.28873C17.8485 7.41156 18.2751 8.69254 18.2751 10.1317V16.9284H19.0659C19.3851 16.9284 19.6545 17.0382 19.8741 17.2577C20.0936 17.4773 20.2034 17.7467 20.2034 18.0659C20.2034 18.3851 20.0936 18.6545 19.8741 18.8741C19.6545 19.0936 19.3851 19.2034 19.0659 19.2034H4.9344ZM12.0061 22.2692C11.4362 22.2692 10.9484 22.0674 10.5428 21.6637C10.1372 21.2601 9.9344 20.7733 9.9344 20.2034H14.0719C14.0719 20.7733 13.8701 21.2601 13.4664 21.6637C13.0628 22.0674 12.5761 22.2692 12.0061 22.2692Z" fill="white"/>
</svg>
