<svg width="40" height="286" viewBox="0 0 40 286" fill="none" xmlns="http://www.w3.org/2000/svg">
<g opacity="0.1">
<path d="M39.3905 32.3516L0.609375 32.3516L0.609375 15.4541C0.609375 6.97761 5.81713 2.26846 12.2991 2.26846C16.8421 2.26846 20.7756 5.20475 22.8254 9.80309L39.3905 -0.00300933L39.3905 9.52608L24.2105 18.0579L24.2105 23.8751L39.3905 23.8751L39.3905 32.3516ZM7.25758 16.5067L7.25758 23.8751L17.9501 23.8751L17.9501 16.6175C17.9501 12.684 15.457 10.6341 12.5761 10.6341C9.47364 10.6341 7.25758 12.7948 7.25758 16.5067Z" fill="white"/>
<path d="M39.3905 66.8203L0.609375 66.8203L0.609375 38.3439L7.31298 38.3439L7.31298 58.3439L16.288 58.3439L16.288 42.9976L22.7146 42.9976L22.7146 58.3439L32.9085 58.3439L32.9085 38.1222L39.3905 38.1223L39.3905 66.8203Z" fill="white"/>
<path d="M39.3905 107.773L0.609375 107.773L0.609375 91.984C0.609375 80.6266 8.75342 72.815 20 72.815C31.2465 72.815 39.3905 81.0144 39.3905 92.7042L39.3905 107.773ZM7.81159 93.2582L7.81159 99.297L32.1883 99.297L32.1883 93.1474C32.1883 85.8898 27.036 81.3468 20 81.3468C12.9639 81.3468 7.81159 85.9452 7.81159 93.2582Z" fill="white"/>
<path d="M33.1302 134.398L33.1302 127.806L6.98057 127.806L6.98057 134.398L0.609375 134.398L0.609375 112.792L6.98057 112.792L6.98057 119.329L33.1302 119.329L33.1302 112.792L39.3905 112.792L39.3905 134.398L33.1302 134.398Z" fill="white"/>
<path d="M39.3905 160.273L0.609375 174.844L0.609375 165.924L30.9695 155.065L0.609375 144.373L0.609375 135.619L39.3905 150.19L39.3905 160.273Z" fill="white"/>
<path d="M2.35194e-07 196.027C3.64023e-07 185.224 8.08865 176.359 20 176.359C31.9114 176.359 40 185.224 40 196.027C40 206.886 31.9114 215.75 20 215.75C8.08865 215.75 1.05705e-07 206.886 2.35194e-07 196.027ZM32.3546 196.027C32.3546 189.767 27.2576 184.947 20 184.947C12.7424 184.947 7.64543 189.767 7.64543 196.027C7.64543 202.343 12.7424 207.163 20 207.163C27.2576 207.163 32.3546 202.343 32.3546 196.027Z" fill="white"/>
<path d="M39.3905 249.414L0.609375 249.414L0.609375 232.517C0.609375 224.04 5.81713 219.331 12.2991 219.331C16.8421 219.331 20.7756 222.267 22.8254 226.866L39.3905 217.059L39.3905 226.589L24.2105 235.12L24.2105 240.938L39.3905 240.938L39.3905 249.414ZM7.25758 233.569L7.25758 240.938L17.9501 240.938L17.9501 233.68C17.9501 229.746 15.457 227.697 12.5761 227.697C9.47364 227.697 7.25758 229.857 7.25758 233.569Z" fill="white"/>
<path d="M39.3905 276.649L39.3905 285.125L0.609375 285.125L0.609375 268.283C0.609375 259.751 5.70633 254.82 12.9639 254.82C19.6675 254.82 25.2077 259.862 25.2077 268.338L25.2077 276.649L39.3905 276.649ZM7.36838 269.336L7.36838 276.649L18.6149 276.649L18.6149 269.336C18.6149 265.568 16.288 263.186 12.9639 263.186C9.69525 263.186 7.36838 265.568 7.36838 269.336Z" fill="white"/>
</g>
</svg>
