<svg width="24" height="24" viewBox="0 0 24 24" fill="none" xmlns="http://www.w3.org/2000/svg">
<path d="M9.45 16.1344C7.59747 16.1344 6.02808 15.4913 4.74185 14.205C3.45562 12.9188 2.8125 11.3494 2.8125 9.49688C2.8125 7.64434 3.45562 6.07496 4.74185 4.78873C6.02808 3.50249 7.59747 2.85938 9.45 2.85938C11.3025 2.85938 12.8719 3.50249 14.1582 4.78873C15.4444 6.07496 16.0875 7.64434 16.0875 9.49688C16.0875 10.2382 15.9748 10.9308 15.7495 11.5749C15.5241 12.2189 15.2194 12.7869 14.8353 13.2789L20.3875 18.8371C20.5987 19.0523 20.7044 19.3185 20.7044 19.6357C20.7044 19.9529 20.5967 20.2172 20.3815 20.4284C20.1703 20.6396 19.9051 20.7453 19.5859 20.7453C19.2667 20.7453 19.0015 20.6396 18.7902 20.4284L13.244 14.8822C12.748 15.2663 12.176 15.571 11.528 15.7963C10.88 16.0217 10.1873 16.1344 9.45 16.1344ZM9.45 13.8594C10.6641 13.8594 11.6948 13.4358 12.5419 12.5887C13.389 11.7416 13.8125 10.711 13.8125 9.49688C13.8125 8.28274 13.389 7.25212 12.5419 6.40502C11.6948 5.55792 10.6641 5.13438 9.45 5.13438C8.23587 5.13438 7.20525 5.55792 6.35815 6.40502C5.51105 7.25212 5.0875 8.28274 5.0875 9.49688C5.0875 10.711 5.51105 11.7416 6.35815 12.5887C7.20525 13.4358 8.23587 13.8594 9.45 13.8594Z" fill="white"/>
</svg>
