<svg width="24" height="24" viewBox="0 0 24 24" fill="none" xmlns="http://www.w3.org/2000/svg">
<path d="M2.59823 17.7515C2.37033 17.5276 2.25955 17.2592 2.26588 16.9463C2.27222 16.6335 2.38101 16.3694 2.59226 16.1542L7.81343 10.876C8.25257 10.4368 8.79134 10.2173 9.42976 10.2173C10.0682 10.2173 10.6069 10.4368 11.0461 10.876L13.4298 13.2787L18.3308 8.41563H16.9341C16.6149 8.41563 16.3455 8.30584 16.1259 8.08628C15.9064 7.86671 15.7966 7.59733 15.7966 7.27813C15.7966 6.95893 15.9064 6.68954 16.1259 6.46998C16.3455 6.25041 16.6149 6.14062 16.9341 6.14062H21.0656C21.3848 6.14062 21.6542 6.25041 21.8738 6.46998C22.0933 6.68954 22.2031 6.95893 22.2031 7.27813V11.4037C22.2031 11.7229 22.0933 11.9923 21.8738 12.2118C21.6542 12.4314 21.3848 12.5412 21.0656 12.5412C20.7464 12.5412 20.477 12.4314 20.2575 12.2118C20.0379 11.9923 19.9281 11.7229 19.9281 11.4037V10.0069L15.0461 14.889C14.6069 15.3281 14.0682 15.5477 13.4298 15.5477C12.7913 15.5477 12.2526 15.3281 11.8134 14.889L9.42976 12.5113L4.18953 17.7515C3.9783 17.9627 3.71308 18.0684 3.39388 18.0684C3.07468 18.0684 2.80947 17.9627 2.59823 17.7515Z" fill="#F5B700"/>
</svg>
