<svg width="24" height="24" viewBox="0 0 24 24" fill="none" xmlns="http://www.w3.org/2000/svg">
<path d="M2.59823 6.2485C2.37033 6.47242 2.25955 6.74081 2.26588 7.05367C2.27222 7.36654 2.38101 7.63058 2.59226 7.8458L7.81343 13.124C8.25257 13.5632 8.79134 13.7827 9.42976 13.7827C10.0682 13.7827 10.6069 13.5632 11.0461 13.124L13.4298 10.7213L18.3308 15.5844H16.9341C16.6149 15.5844 16.3455 15.6942 16.1259 15.9137C15.9064 16.1333 15.7966 16.4027 15.7966 16.7219C15.7966 17.0411 15.9064 17.3105 16.1259 17.53C16.3455 17.7496 16.6149 17.8594 16.9341 17.8594H21.0656C21.3848 17.8594 21.6542 17.7496 21.8738 17.53C22.0933 17.3105 22.2031 17.0411 22.2031 16.7219V12.5963C22.2031 12.2771 22.0933 12.0077 21.8738 11.7882C21.6542 11.5686 21.3848 11.4588 21.0656 11.4588C20.7464 11.4588 20.477 11.5686 20.2575 11.7882C20.0379 12.0077 19.9281 12.2771 19.9281 12.5963V13.9931L15.0461 9.111C14.6069 8.67187 14.0682 8.4523 13.4298 8.4523C12.7913 8.4523 12.2526 8.67187 11.8134 9.111L9.42976 11.4887L4.18953 6.2485C3.9783 6.03727 3.71308 5.93165 3.39388 5.93165C3.07468 5.93165 2.80947 6.03727 2.59823 6.2485Z" fill="#F5B700"/>
</svg>
